<svg width="29" height="29" viewBox="0 0 29 29" fill="none" xmlns="http://www.w3.org/2000/svg">
<path d="M12.2163 13.4727H9.0142C8.25295 13.4727 7.63672 14.0889 7.63672 14.8501V21.0368H12.2163V13.4727V13.4727Z" stroke="#0C0C0D" stroke-width="1.5" stroke-miterlimit="10" stroke-linecap="round" stroke-linejoin="round"/>
<path d="M15.4212 7.97461H13.5845C12.8233 7.97461 12.207 8.59088 12.207 9.35213V21.0247H16.7866V9.35213C16.7866 8.59088 16.1825 7.97461 15.4212 7.97461Z" stroke="#0C0C0D" stroke-width="1.5" stroke-miterlimit="10" stroke-linecap="round" stroke-linejoin="round"/>
<path d="M19.995 15.5264H16.793V21.0243H21.3726V16.9039C21.3605 16.1426 20.7442 15.5264 19.995 15.5264Z" stroke="#0C0C0D" stroke-width="1.5" stroke-miterlimit="10" stroke-linecap="round" stroke-linejoin="round"/>
<path d="M10.8763 26.5837H18.1263C24.168 26.5837 26.5846 24.167 26.5846 18.1253V10.8753C26.5846 4.83366 24.168 2.41699 18.1263 2.41699H10.8763C4.83464 2.41699 2.41797 4.83366 2.41797 10.8753V18.1253C2.41797 24.167 4.83464 26.5837 10.8763 26.5837Z" stroke="#0C0C0D" stroke-width="1.5" stroke-linecap="round" stroke-linejoin="round"/>
</svg>