<svg width="29" height="29" viewBox="0 0 29 29" fill="none" xmlns="http://www.w3.org/2000/svg">
<path d="M21.9184 26.1246C20.8551 26.4388 19.5984 26.5838 18.1242 26.5838H10.8742C9.40008 26.5838 8.14341 26.4388 7.08008 26.1246C7.34591 22.983 10.5722 20.5059 14.4992 20.5059C18.4263 20.5059 21.6526 22.983 21.9184 26.1246Z" stroke="#0C0C0D" stroke-width="1.5" stroke-linecap="round" stroke-linejoin="round"/>
<path d="M18.1263 2.41699H10.8763C4.83464 2.41699 2.41797 4.83366 2.41797 10.8753V18.1253C2.41797 22.6928 3.79547 25.1941 7.08214 26.1245C7.34797 22.9828 10.5742 20.5057 14.5013 20.5057C18.4284 20.5057 21.6546 22.9828 21.9205 26.1245C25.2071 25.1941 26.5846 22.6928 26.5846 18.1253V10.8753C26.5846 4.83366 24.168 2.41699 18.1263 2.41699ZM14.5013 17.1224C12.1088 17.1224 10.1755 15.177 10.1755 12.7845C10.1755 10.392 12.1088 8.45866 14.5013 8.45866C16.8938 8.45866 18.8271 10.392 18.8271 12.7845C18.8271 15.177 16.8938 17.1224 14.5013 17.1224Z" stroke="#0C0C0D" stroke-width="1.5" stroke-linecap="round" stroke-linejoin="round"/>
<path d="M18.8255 12.7839C18.8255 15.1764 16.8922 17.1217 14.4997 17.1217C12.1072 17.1217 10.1738 15.1764 10.1738 12.7839C10.1738 10.3914 12.1072 8.45801 14.4997 8.45801C16.8922 8.45801 18.8255 10.3914 18.8255 12.7839Z" stroke="#0C0C0D" stroke-width="1.5" stroke-linecap="round" stroke-linejoin="round"/>
</svg>
