<svg width="29" height="30" viewBox="0 0 29 30" fill="none" xmlns="http://www.w3.org/2000/svg">
<path d="M9.79647 27.5337H5.01062C2.62955 27.5337 1.48047 26.432 1.48047 24.1575V5.44061C1.48047 3.16615 2.64139 2.06445 5.01062 2.06445H9.79647C12.1775 2.06445 13.3266 3.16615 13.3266 5.44061V24.1575C13.3266 26.432 12.1657 27.5337 9.79647 27.5337ZM5.01062 3.84138C3.50616 3.84138 3.25739 4.24415 3.25739 5.44061V24.1575C3.25739 25.354 3.50616 25.7568 5.01062 25.7568H9.79647C11.3009 25.7568 11.5497 25.354 11.5497 24.1575V5.44061C11.5497 4.24415 11.3009 3.84138 9.79647 3.84138H5.01062Z" fill="black"/>
<path d="M23.4195 16.8721H18.6337C16.2526 16.8721 15.1035 15.7705 15.1035 13.496V5.44061C15.1035 3.16615 16.2644 2.06445 18.6337 2.06445H23.4195C25.8006 2.06445 26.9497 3.16615 26.9497 5.44061V13.496C26.9497 15.7705 25.7887 16.8721 23.4195 16.8721ZM18.6337 3.84138C17.1292 3.84138 16.8804 4.24415 16.8804 5.44061V13.496C16.8804 14.6925 17.1292 15.0952 18.6337 15.0952H23.4195C24.924 15.0952 25.1727 14.6925 25.1727 13.496V5.44061C25.1727 4.24415 24.924 3.84138 23.4195 3.84138H18.6337Z" fill="black"/>
<path d="M23.4195 27.5331H18.6337C16.2526 27.5331 15.1035 26.4314 15.1035 24.1569V22.0246C15.1035 19.7501 16.2644 18.6484 18.6337 18.6484H23.4195C25.8006 18.6484 26.9497 19.7501 26.9497 22.0246V24.1569C26.9497 26.4314 25.7887 27.5331 23.4195 27.5331ZM18.6337 20.4254C17.1292 20.4254 16.8804 20.8281 16.8804 22.0246V24.1569C16.8804 25.3534 17.1292 25.7561 18.6337 25.7561H23.4195C24.924 25.7561 25.1727 25.3534 25.1727 24.1569V22.0246C25.1727 20.8281 24.924 20.4254 23.4195 20.4254H18.6337Z" fill="black"/>
</svg>
