<svg width="28" height="28" viewBox="0 0 28 28" fill="none" xmlns="http://www.w3.org/2000/svg">
<path d="M13.5511 17.7858C11.2135 17.7858 9.31641 15.8886 9.31641 13.5511C9.31641 11.2135 11.2135 9.31641 13.5511 9.31641C15.8886 9.31641 17.7858 11.2135 17.7858 13.5511C17.7858 15.8886 15.8886 17.7858 13.5511 17.7858ZM13.5511 11.0103C12.1508 11.0103 11.0103 12.1508 11.0103 13.5511C11.0103 14.9513 12.1508 16.0919 13.5511 16.0919C14.9513 16.0919 16.0919 14.9513 16.0919 13.5511C16.0919 12.1508 14.9513 11.0103 13.5511 11.0103Z" fill="#0C0C0D"/>
<path d="M17.1744 25.0574C16.9373 25.0574 16.7001 25.0236 16.463 24.9671C15.7629 24.7751 15.1757 24.3347 14.803 23.7136L14.6675 23.4878C14.0012 22.3359 13.0866 22.3359 12.4203 23.4878L12.2961 23.7023C11.9234 24.3347 11.3362 24.7864 10.6361 24.9671C9.92467 25.1591 9.19066 25.0574 8.56958 24.6848L6.62727 23.5668C5.93843 23.1716 5.44156 22.5279 5.22701 21.7487C5.02374 20.9696 5.12538 20.1678 5.52061 19.479C5.84809 18.903 5.93843 18.3836 5.74646 18.0561C5.55449 17.7286 5.06891 17.5367 4.40266 17.5367C2.75396 17.5367 1.41016 16.1929 1.41016 14.5442V12.5567C1.41016 10.908 2.75396 9.56418 4.40266 9.56418C5.06891 9.56418 5.55449 9.37221 5.74646 9.04472C5.93843 8.71724 5.85939 8.19779 5.52061 7.62187C5.12538 6.93303 5.02374 6.11998 5.22701 5.35209C5.43027 4.57291 5.92714 3.92924 6.62727 3.534L8.58087 2.41605C9.85692 1.65946 11.5395 2.09986 12.3074 3.39849L12.4429 3.62434C13.1091 4.77617 14.0238 4.77617 14.6901 3.62434L14.8143 3.40979C15.5822 2.09986 17.2648 1.65946 18.5521 2.42734L20.4944 3.5453C21.1833 3.94053 21.6801 4.5842 21.8947 5.36338C22.0979 6.14256 21.9963 6.94433 21.6011 7.63317C21.2736 8.20908 21.1833 8.72854 21.3752 9.05602C21.5672 9.3835 22.0528 9.57547 22.719 9.57547C24.3677 9.57547 25.7115 10.9193 25.7115 12.568V14.5554C25.7115 16.2041 24.3677 17.5479 22.719 17.5479C22.0528 17.5479 21.5672 17.7399 21.3752 18.0674C21.1833 18.3949 21.2623 18.9143 21.6011 19.4902C21.9963 20.1791 22.1092 20.9921 21.8947 21.76C21.6914 22.5392 21.1945 23.1829 20.4944 23.5781L18.5408 24.6961C18.1117 24.9332 17.6487 25.0574 17.1744 25.0574ZM13.5496 20.8792C14.5546 20.8792 15.4919 21.5116 16.1355 22.6296L16.2597 22.8441C16.3953 23.0813 16.6211 23.2506 16.8921 23.3184C17.1631 23.3861 17.4342 23.3523 17.66 23.2168L19.6136 22.0875C19.9072 21.9181 20.1331 21.6358 20.2234 21.297C20.3137 20.9583 20.2686 20.6082 20.0992 20.3146C19.4555 19.2079 19.3765 18.0674 19.8733 17.1979C20.3702 16.3284 21.3978 15.8315 22.6852 15.8315C23.4079 15.8315 23.9838 15.2556 23.9838 14.5329V12.5454C23.9838 11.834 23.4079 11.2468 22.6852 11.2468C21.3978 11.2468 20.3702 10.7499 19.8733 9.88037C19.3765 9.01085 19.4555 7.87031 20.0992 6.76365C20.2686 6.47004 20.3137 6.11998 20.2234 5.7812C20.1331 5.44243 19.9185 5.17141 19.6249 4.99073L17.6713 3.87278C17.1857 3.57917 16.5421 3.74856 16.2484 4.24543L16.1242 4.45999C15.4806 5.57794 14.5433 6.21032 13.5383 6.21032C12.5332 6.21032 11.596 5.57794 10.9523 4.45999L10.8281 4.23414C10.5458 3.75985 9.91338 3.59047 9.4278 3.87278L7.47421 5.00202C7.1806 5.17141 6.95475 5.45372 6.86441 5.7925C6.77407 6.13127 6.81924 6.48134 6.98863 6.77494C7.6323 7.8816 7.71135 9.02214 7.21448 9.89166C6.71761 10.7612 5.69 11.258 4.40266 11.258C3.67994 11.258 3.10403 11.834 3.10403 12.5567V14.5442C3.10403 15.2556 3.67994 15.8428 4.40266 15.8428C5.69 15.8428 6.71761 16.3397 7.21448 17.2092C7.71135 18.0787 7.6323 19.2192 6.98863 20.3259C6.81924 20.6195 6.77407 20.9696 6.86441 21.3083C6.95475 21.6471 7.16931 21.9181 7.46291 22.0988L9.41651 23.2168C9.65365 23.3636 9.93596 23.3974 10.1957 23.3297C10.4667 23.2619 10.6926 23.0813 10.8394 22.8441L10.9636 22.6296C11.6072 21.5229 12.5445 20.8792 13.5496 20.8792Z" fill="#0C0C0D"/>
</svg>
