<svg width="29" height="29" viewBox="0 0 29 29" fill="none" xmlns="http://www.w3.org/2000/svg">
<path d="M14.5447 25.3337C14.2784 25.3337 14.0611 25.2482 13.8928 25.0772C13.7244 24.9063 13.6402 24.6876 13.6402 24.4214V22.8119C12.6544 22.646 11.8205 22.3001 11.1384 21.7743C10.4563 21.2486 9.92149 20.5857 9.53402 19.7853C9.42366 19.5646 9.42356 19.3251 9.53372 19.0667C9.64388 18.8085 9.82674 18.6242 10.0823 18.5139C10.3183 18.4232 10.5556 18.4257 10.794 18.5211C11.0323 18.6166 11.2188 18.782 11.3538 19.0174C11.7114 19.6931 12.1749 20.1949 12.7443 20.5227C13.3136 20.8506 13.9691 21.0145 14.7108 21.0145C15.6731 21.0145 16.4555 20.7788 17.058 20.3073C17.6608 19.8359 17.9621 19.1991 17.9621 18.397C17.9621 17.535 17.684 16.856 17.1278 16.36C16.5716 15.8638 15.5255 15.3738 13.9897 14.8901C12.5796 14.4567 11.5197 13.8615 10.81 13.1045C10.1003 12.3476 9.74548 11.383 9.74548 10.2105C9.74548 9.12743 10.0944 8.20991 10.7922 7.45792C11.49 6.70593 12.4394 6.26761 13.6402 6.14295V4.54856C13.6402 4.29239 13.7244 4.07881 13.8928 3.90784C14.0611 3.73686 14.2784 3.65137 14.5447 3.65137C14.8109 3.65137 15.0294 3.73686 15.2002 3.90784C15.3712 4.07881 15.4567 4.29239 15.4567 4.54856V6.14295C16.1768 6.24324 16.8262 6.46709 17.4048 6.81448C17.9834 7.16188 18.4564 7.60211 18.8237 8.13519C18.9643 8.34584 18.9919 8.57281 18.9068 8.81609C18.8216 9.05916 18.6512 9.23588 18.3956 9.34624C18.1846 9.4417 17.956 9.45298 17.7099 9.38008C17.4638 9.30717 17.2484 9.15774 17.0637 8.93178C16.7866 8.58862 16.4377 8.33134 16.017 8.15996C15.5963 7.98858 15.1059 7.90289 14.5459 7.90289C13.6537 7.90289 12.9478 8.10096 12.428 8.49709C11.9084 8.89342 11.6486 9.44966 11.6486 10.1658C11.6486 10.8821 11.9186 11.4746 12.4585 11.9433C12.9986 12.4119 14.0789 12.8903 15.6992 13.3785C17.0983 13.8211 18.1424 14.4324 18.8315 15.2124C19.5207 15.9922 19.8653 17.0134 19.8653 18.2761C19.8552 19.5292 19.479 20.5494 18.7367 21.3368C17.9944 22.1241 16.901 22.6258 15.4567 22.8421V24.4214C15.4567 24.6876 15.3701 24.9063 15.1969 25.0772C15.0235 25.2482 14.8061 25.3337 14.5447 25.3337Z" fill="#0E0E0E"/>
</svg>
