<svg width="45" height="45" viewBox="0 0 45 45" fill="none" xmlns="http://www.w3.org/2000/svg">
<rect width="45" height="45" rx="15" fill="#EBEBEB" fill-opacity="0.4"/>
<path d="M20.1827 11.5604C20.3695 11.0988 20.6898 10.7035 21.1027 10.4251C21.5156 10.1468 22.0022 9.99805 22.5002 9.99805C22.9981 9.99805 23.4848 10.1468 23.8977 10.4251C24.3106 10.7035 24.6309 11.0988 24.8177 11.5604C26.6661 12.0687 28.2966 13.1698 29.4586 14.6946C30.6207 16.2193 31.2501 18.0833 31.2502 20.0004V25.8716L33.5402 29.3066C33.6658 29.4949 33.7379 29.7137 33.7489 29.9397C33.7599 30.1658 33.7093 30.3906 33.6025 30.5901C33.4958 30.7896 33.3368 30.9564 33.1427 31.0727C32.9486 31.189 32.7265 31.2504 32.5002 31.2504H26.8314C26.6809 32.2918 26.1603 33.2441 25.3648 33.9328C24.5694 34.6216 23.5524 35.0007 22.5002 35.0007C21.448 35.0007 20.431 34.6216 19.6356 33.9328C18.8401 33.2441 18.3194 32.2918 18.1689 31.2504H12.5002C12.2739 31.2504 12.0518 31.189 11.8577 31.0727C11.6635 30.9564 11.5046 30.7896 11.3978 30.5901C11.2911 30.3906 11.2405 30.1658 11.2515 29.9397C11.2625 29.7137 11.3346 29.4949 11.4602 29.3066L13.7502 25.8716V20.0004C13.7502 15.9704 16.4752 12.5754 20.1827 11.5604ZM20.7327 31.2504C20.8618 31.6162 21.1012 31.933 21.4178 32.157C21.7345 32.3811 22.1129 32.5014 22.5008 32.5014C22.8887 32.5014 23.2671 32.3811 23.5838 32.157C23.9005 31.933 24.1398 31.6162 24.2689 31.2504H20.7314H20.7327ZM22.5002 13.7504C20.8426 13.7504 19.2529 14.4089 18.0808 15.581C16.9087 16.7531 16.2502 18.3428 16.2502 20.0004V26.2504C16.2502 26.4973 16.1772 26.7387 16.0402 26.9441L14.8364 28.7504H30.1627L28.9589 26.9441C28.8224 26.7386 28.7498 26.4972 28.7502 26.2504V20.0004C28.7502 18.3428 28.0917 16.7531 26.9196 15.581C25.7475 14.4089 24.1578 13.7504 22.5002 13.7504Z" fill="black"/>
<circle cx="28.75" cy="15" r="4.375" fill="#FF0000" stroke="#EBEBEB" stroke-width="1.25"/>
</svg>
